<svg width="20" height="18" viewBox="0 0 20 18" fill="none" xmlns="http://www.w3.org/2000/svg">
<path d="M17.3667 2.34167C16.9411 1.91584 16.4357 1.57804 15.8795 1.34757C15.3233 1.1171 14.7271 0.998478 14.1251 0.998478C13.523 0.998478 12.9268 1.1171 12.3706 1.34757C11.8144 1.57804 11.309 1.91584 10.8834 2.34167L10.0001 3.225L9.11673 2.34167C8.25698 1.48192 7.09092 0.998924 5.87506 0.998924C4.6592 0.998924 3.49314 1.48192 2.63339 2.34167C1.77365 3.20141 1.29065 4.36747 1.29065 5.58333C1.29065 6.79919 1.77365 7.96526 2.63339 8.825L10.0001 16.1917L17.3667 8.825C17.7926 8.39937 18.1304 7.89401 18.3608 7.33779C18.5913 6.78158 18.7099 6.18541 18.7099 5.58333C18.7099 4.98126 18.5913 4.38509 18.3608 3.82887C18.1304 3.27265 17.7926 2.7673 17.3667 2.34167Z" stroke="#152242" stroke-width="2" stroke-linecap="round" stroke-linejoin="round"/>
</svg>
