<svg width="14" height="17" viewBox="0 0 14 17" fill="none" xmlns="http://www.w3.org/2000/svg">
<path d="M0.333374 14.3333V12.6667H2.00004V6.83333C2.00004 5.68055 2.34726 4.65972 3.04171 3.77083C3.73615 2.86805 4.63893 2.27778 5.75004 2V1.41667C5.75004 1.06944 5.8681 0.777777 6.10421 0.541665C6.35421 0.291666 6.65282 0.166666 7.00004 0.166666C7.34726 0.166666 7.63893 0.291666 7.87504 0.541665C8.12504 0.777777 8.25004 1.06944 8.25004 1.41667V2C9.36115 2.27778 10.2639 2.86805 10.9584 3.77083C11.6528 4.65972 12 5.68055 12 6.83333V12.6667H13.6667V14.3333H0.333374ZM7.00004 16.8333C6.54171 16.8333 6.14587 16.6736 5.81254 16.3542C5.4931 16.0208 5.33337 15.625 5.33337 15.1667H8.66671C8.66671 15.625 8.50004 16.0208 8.16671 16.3542C7.84726 16.6736 7.45837 16.8333 7.00004 16.8333ZM3.66671 12.6667H10.3334V6.83333C10.3334 5.91667 10.007 5.13194 9.35421 4.47917C8.70143 3.82639 7.91671 3.5 7.00004 3.5C6.08337 3.5 5.29865 3.82639 4.64587 4.47917C3.9931 5.13194 3.66671 5.91667 3.66671 6.83333V12.6667Z" fill="#152242"/>
</svg>
