<svg width="42" height="49" viewBox="0 0 42 49" fill="none" xmlns="http://www.w3.org/2000/svg">
<path d="M36 35.04C39.1125 36.3625 41 38.0975 41 40C41 44.1425 32.045 47.5 21 47.5C9.955 47.5 1 44.1425 1 40C1 38.1 2.8875 36.36 6 35.04" stroke="#0468FF" stroke-width="2" stroke-linecap="round" stroke-linejoin="round"/>
<path d="M22.5079 38.8146L22.4904 38.835L22.4835 38.8418L22.476 38.8501C22.2886 39.055 22.0606 39.2187 21.8065 39.3307C21.5524 39.4427 21.2777 39.5005 21 39.5005C20.7223 39.5005 20.4476 39.4427 20.1935 39.3307C19.9394 39.2187 19.7114 39.055 19.524 38.8501L19.5165 38.8418L19.5096 38.835L19.4921 38.8146L19.4922 38.8145L19.4841 38.8055L19.3733 38.6824C19.373 38.682 19.3726 38.6816 19.3722 38.6812C17.1514 36.1887 15.0642 33.5804 13.1195 30.867C11.5273 28.628 9.89663 26.1024 8.66068 23.6033L8.66062 23.6032C7.44623 21.1496 6.5 18.511 6.5 16.11C6.5 7.41387 12.857 0.5 21 0.5C29.143 0.5 35.5 7.41632 35.5 16.11C35.5 18.511 34.5538 21.1496 33.3394 23.6032L33.3393 23.6033C32.1032 26.1026 30.4749 28.6284 28.8781 30.8669C27.0553 33.4126 25.1071 35.8661 23.0408 38.2184C23.0403 38.2189 23.0398 38.2195 23.0394 38.22L22.6284 38.6805L22.627 38.6821L22.5159 38.8055L22.5157 38.8054L22.5079 38.8146ZM21 9.5C19.5413 9.5 18.1424 10.0795 17.1109 11.1109C16.0795 12.1424 15.5 13.5413 15.5 15C15.5 16.4587 16.0795 17.8576 17.1109 18.8891C18.1424 19.9205 19.5413 20.5 21 20.5C22.4587 20.5 23.8576 19.9205 24.8891 18.8891C25.9205 17.8576 26.5 16.4587 26.5 15C26.5 13.5413 25.9205 12.1424 24.8891 11.1109C23.8576 10.0795 22.4587 9.5 21 9.5Z" fill="#0468FF" stroke="#0468FF"/>
</svg>
